<svg width="215" height="60" viewBox="0 0 215 60" fill="none" xmlns="http://www.w3.org/2000/svg">
<g clip-path="url(#clip0)">
<path d="M138 30C138 39.9048 130 48 120 48C110.095 48 102 39.9048 102 30C102 20.0952 110 12 119.905 12C130 12 138 20.0952 138 30Z" fill="#FFB600"/>
<path d="M120 12C129.905 12 138 20.0952 138 30C138 39.9048 130 48 120 48C110.095 48 102 39.9048 102 30" fill="#F7981D"/>
<path d="M120 12C129.905 12 138 20.0952 138 30C138 39.9048 130 48 120 48" fill="#FF8500"/>
<path d="M95.8095 12C86 12.0952 78 20.0952 78 30C78 39.9048 86 48 96 48C100.667 48 104.857 46.1905 108.095 43.3333C108.762 42.7619 109.333 42.0952 109.905 41.4286H106.19C105.714 40.8571 105.238 40.1905 104.857 39.619H111.238C111.619 39.0476 112 38.3809 112.286 37.7143H103.81C103.524 37.1429 103.238 36.4762 103.048 35.8095H112.952C113.524 34 113.905 32.0952 113.905 30.0952C113.905 28.7619 113.714 27.5238 113.524 26.2857H102.476C102.571 25.619 102.762 25.0476 102.952 24.381H112.857C112.667 23.7143 112.381 23.0476 112.095 22.4762H103.714C104 21.8095 104.381 21.2381 104.762 20.5714H111.143C110.762 19.9048 110.286 19.2381 109.714 18.6667H106.19C106.762 18 107.333 17.4286 108 16.8571C104.857 13.9048 100.571 12.1905 95.9048 12.1905C95.9048 12 95.9048 12 95.8095 12Z" fill="#FF5050"/>
<path d="M78 30C78 39.9048 86 48 96 48C100.667 48 104.857 46.1905 108.095 43.3333C108.762 42.7619 109.333 42.0953 109.905 41.4286H106.19C105.714 40.8572 105.238 40.1905 104.857 39.6191H111.238C111.619 39.0476 112 38.381 112.286 37.7143H103.81C103.524 37.1429 103.238 36.4762 103.048 35.8095H112.952C113.524 34 113.905 32.0953 113.905 30.0953C113.905 28.7619 113.714 27.5238 113.524 26.2857H102.476C102.571 25.6191 102.762 25.0476 102.952 24.381H112.857C112.667 23.7143 112.381 23.0476 112.095 22.4762H103.714C104 21.8095 104.381 21.2381 104.762 20.5714H111.143C110.762 19.9048 110.286 19.2381 109.714 18.6667H106.19C106.762 18 107.333 17.4286 108 16.8572C104.857 13.9048 100.571 12.1905 95.9048 12.1905H95.8095" fill="#E52836"/>
<path d="M96 48C100.667 48 104.857 46.1905 108.095 43.3333C108.762 42.7619 109.333 42.0953 109.905 41.4286H106.191C105.714 40.8572 105.238 40.1905 104.857 39.6191H111.238C111.619 39.0476 112 38.381 112.286 37.7143H103.81C103.524 37.1429 103.238 36.4762 103.048 35.8095H112.952C113.524 34 113.905 32.0953 113.905 30.0953C113.905 28.7619 113.714 27.5238 113.524 26.2857H102.476C102.571 25.6191 102.762 25.0476 102.952 24.381H112.857C112.667 23.7143 112.381 23.0476 112.095 22.4762H103.714C104 21.8095 104.381 21.2381 104.762 20.5714H111.143C110.762 19.9048 110.286 19.2381 109.714 18.6667H106.191C106.762 18 107.333 17.4286 108 16.8572C104.857 13.9048 100.571 12.1905 95.9048 12.1905H95.8096" fill="#CB2026"/>
<path d="M102.381 34.5714L102.667 32.9524C102.572 32.9524 102.381 33.0476 102.191 33.0476C101.524 33.0476 101.429 32.6667 101.524 32.4762L102.095 29.1429H103.143L103.429 27.3333H102.476L102.667 26.1905H100.762C100.762 26.1905 99.6191 32.4762 99.6191 33.2381C99.6191 34.381 100.286 34.8572 101.143 34.8572C101.714 34.8572 102.191 34.6667 102.381 34.5714Z" fill="white"/>
<path d="M103.048 31.5238C103.048 34.1905 104.857 34.8572 106.381 34.8572C107.81 34.8572 108.381 34.5715 108.381 34.5715L108.762 32.7619C108.762 32.7619 107.715 33.2381 106.762 33.2381C104.667 33.2381 105.048 31.7143 105.048 31.7143H108.953C108.953 31.7143 109.238 30.4762 109.238 30C109.238 28.7619 108.572 27.2381 106.476 27.2381C104.476 27.0477 103.048 29.1429 103.048 31.5238ZM106.381 28.7619C107.429 28.7619 107.238 30 107.238 30.0953H105.143C105.143 30 105.334 28.7619 106.381 28.7619Z" fill="white"/>
<path d="M118.476 34.5714L118.857 32.4762C118.857 32.4762 117.905 32.9524 117.238 32.9524C115.905 32.9524 115.334 31.9047 115.334 30.7619C115.334 28.4762 116.476 27.2381 117.81 27.2381C118.762 27.2381 119.524 27.8095 119.524 27.8095L119.81 25.8095C119.81 25.8095 118.667 25.3333 117.619 25.3333C115.429 25.3333 113.238 27.2381 113.238 30.8571C113.238 33.2381 114.381 34.8571 116.667 34.8571C117.429 34.8571 118.476 34.5714 118.476 34.5714Z" fill="white"/>
<path d="M91.9047 27.0476C90.5714 27.0476 89.619 27.4286 89.619 27.4286L89.3333 29.0476C89.3333 29.0476 90.1904 28.6667 91.4285 28.6667C92.0952 28.6667 92.6666 28.7619 92.6666 29.3333C92.6666 29.7143 92.5714 29.8095 92.5714 29.8095C92.5714 29.8095 91.9999 29.8095 91.7142 29.8095C90.0952 29.8095 88.2856 30.4762 88.2856 32.6666C88.2856 34.3809 89.4285 34.7619 90.0952 34.7619C91.4285 34.7619 91.9999 33.9047 92.0952 33.9047L91.9999 34.6667H93.7142L94.4761 29.4286C94.4761 27.1428 92.5714 27.0476 91.9047 27.0476ZM92.2856 31.3333C92.2856 31.619 92.0952 33.1428 90.9523 33.1428C90.3809 33.1428 90.1904 32.6667 90.1904 32.3809C90.1904 31.9047 90.4761 31.2381 91.9047 31.2381C92.1904 31.3333 92.2856 31.3333 92.2856 31.3333Z" fill="white"/>
<path d="M96.2857 34.7619C96.7619 34.7619 99.1428 34.8571 99.1428 32.2857C99.1428 29.9048 96.8571 30.381 96.8571 29.4286C96.8571 28.9524 97.2381 28.7619 97.9047 28.7619C98.1905 28.7619 99.2381 28.8572 99.2381 28.8572L99.5238 27.1429C99.5238 27.1429 98.8571 26.9524 97.7143 26.9524C96.2857 26.9524 94.8571 27.5238 94.8571 29.4286C94.8571 31.6191 97.2381 31.4286 97.2381 32.2857C97.2381 32.8572 96.5714 32.9524 96.0952 32.9524C95.2381 32.9524 94.3809 32.6667 94.3809 32.6667L94.0952 34.381C94.1905 34.5714 94.6666 34.7619 96.2857 34.7619Z" fill="white"/>
<path d="M134.286 25.5238L133.905 28.0952C133.905 28.0952 133.143 27.1429 132.096 27.1429C130.381 27.1429 128.857 29.2381 128.857 31.7143C128.857 33.2381 129.619 34.8571 131.238 34.8571C132.381 34.8571 133.048 34.0952 133.048 34.0952L132.953 34.7619H134.857L136.286 25.619L134.286 25.5238ZM133.429 30.5714C133.429 31.619 132.953 32.9524 131.905 32.9524C131.238 32.9524 130.857 32.3809 130.857 31.4286C130.857 29.9048 131.524 28.9524 132.381 28.9524C133.048 28.9524 133.429 29.4286 133.429 30.5714Z" fill="white"/>
<path d="M81.5239 34.6667L82.6667 27.8095L82.8572 34.6667H84.1905L86.6667 27.8095L85.6191 34.6667H87.6191L89.1429 25.5238H86.0001L84.0953 31.1429L84.0001 25.5238H81.2382L79.7144 34.6667H81.5239Z" fill="white"/>
<path d="M111.048 34.6667C111.619 31.5238 111.715 28.9524 113.048 29.4286C113.238 28.1905 113.524 27.7143 113.715 27.2381C113.715 27.2381 113.619 27.2381 113.334 27.2381C112.476 27.2381 111.81 28.381 111.81 28.381L112 27.3333H110.191L108.953 34.7619H111.048V34.6667Z" fill="white"/>
<path d="M122.857 27.0476C121.524 27.0476 120.572 27.4286 120.572 27.4286L120.286 29.0476C120.286 29.0476 121.143 28.6667 122.381 28.6667C123.048 28.6667 123.619 28.7619 123.619 29.3333C123.619 29.7143 123.524 29.8095 123.524 29.8095C123.524 29.8095 122.953 29.8095 122.667 29.8095C121.048 29.8095 119.238 30.4762 119.238 32.6666C119.238 34.3809 120.381 34.7619 121.048 34.7619C122.381 34.7619 122.953 33.9047 123.048 33.9047L122.953 34.6667H124.667L125.429 29.4286C125.524 27.1428 123.524 27.0476 122.857 27.0476ZM123.334 31.3333C123.334 31.619 123.143 33.1428 122 33.1428C121.429 33.1428 121.238 32.6667 121.238 32.3809C121.238 31.9047 121.524 31.2381 122.953 31.2381C123.238 31.3333 123.238 31.3333 123.334 31.3333Z" fill="white"/>
<path d="M127.048 34.6667C127.619 31.5238 127.715 28.9524 129.048 29.4286C129.238 28.1905 129.524 27.7143 129.715 27.2381C129.715 27.2381 129.619 27.2381 129.334 27.2381C128.476 27.2381 127.81 28.381 127.81 28.381L128 27.3333H126.191L124.953 34.7619H127.048V34.6667Z" fill="white"/>
<path d="M99.4287 33.2381C99.4287 34.381 100.095 34.8572 100.953 34.8572C101.619 34.8572 102.191 34.6667 102.381 34.5714L102.667 32.9524C102.572 32.9524 102.381 33.0476 102.191 33.0476C101.524 33.0476 101.429 32.6667 101.524 32.4762L102.095 29.1429H103.143L103.429 27.3333H102.476L102.667 26.1905" fill="#DCE5E5"/>
<path d="M104 31.5238C104 34.1905 104.857 34.8572 106.381 34.8572C107.81 34.8572 108.381 34.5715 108.381 34.5715L108.762 32.7619C108.762 32.7619 107.714 33.2381 106.762 33.2381C104.667 33.2381 105.048 31.7143 105.048 31.7143H108.952C108.952 31.7143 109.238 30.4762 109.238 30C109.238 28.7619 108.571 27.2381 106.476 27.2381C104.476 27.0477 104 29.1429 104 31.5238ZM106.381 28.7619C107.429 28.7619 107.619 30 107.619 30.0953H105.143C105.143 30 105.333 28.7619 106.381 28.7619Z" fill="#DCE5E5"/>
<path d="M118.476 34.5714L118.857 32.4762C118.857 32.4762 117.905 32.9524 117.238 32.9524C115.905 32.9524 115.333 31.9047 115.333 30.7619C115.333 28.4762 116.476 27.2381 117.809 27.2381C118.762 27.2381 119.524 27.8095 119.524 27.8095L119.809 25.8095C119.809 25.8095 118.667 25.3333 117.619 25.3333C115.429 25.3333 114.19 27.2381 114.19 30.8571C114.19 33.2381 114.381 34.8571 116.667 34.8571C117.429 34.8571 118.476 34.5714 118.476 34.5714Z" fill="#DCE5E5"/>
<path d="M89.3333 29.1429C89.3333 29.1429 90.1904 28.7619 91.4285 28.7619C92.0952 28.7619 92.6666 28.8571 92.6666 29.4286C92.6666 29.8095 92.5714 29.9048 92.5714 29.9048C92.5714 29.9048 91.9999 29.9048 91.7142 29.9048C90.0952 29.9048 88.2856 30.5714 88.2856 32.7619C88.2856 34.4762 89.4285 34.8571 90.0952 34.8571C91.4285 34.8571 91.9999 34 92.0952 34L91.9999 34.7619H93.7142L94.4761 29.5238C94.4761 27.3333 92.5714 27.2381 91.8095 27.2381L89.3333 29.1429ZM93.238 31.3333C93.238 31.619 92.0952 33.1429 90.9523 33.1429C90.3809 33.1429 90.1904 32.6667 90.1904 32.3809C90.1904 31.9048 90.4761 31.2381 91.9047 31.2381C92.1904 31.3333 93.238 31.3333 93.238 31.3333Z" fill="#DCE5E5"/>
<path d="M94.1904 34.5714C94.1904 34.5714 94.7619 34.7619 96.3809 34.7619C96.8571 34.7619 99.238 34.8571 99.238 32.2857C99.238 29.9048 96.9523 30.381 96.9523 29.4286C96.9523 28.9524 97.3333 28.7619 98 28.7619C98.2857 28.7619 99.3333 28.8572 99.3333 28.8572L99.619 27.1429C99.619 27.1429 98.9523 26.9524 97.8095 26.9524C96.3809 26.9524 95.9047 27.5238 95.9047 29.4286C95.9047 31.6191 97.3333 31.4286 97.3333 32.2857C97.3333 32.8572 96.6666 32.9524 96.1904 32.9524" fill="#DCE5E5"/>
<path d="M133.905 28.0952C133.905 28.0952 133.143 27.1428 132.095 27.1428C130.381 27.1428 129.81 29.2381 129.81 31.7143C129.81 33.2381 129.619 34.8571 131.238 34.8571C132.381 34.8571 133.048 34.0952 133.048 34.0952L132.952 34.7619H134.857L136.286 25.619L133.905 28.0952ZM133.81 30.5714C133.81 31.619 132.952 32.9523 131.905 32.9523C131.238 32.9523 130.857 32.3809 130.857 31.4285C130.857 29.9047 131.524 28.9523 132.381 28.9523C133.048 28.9523 133.81 29.4285 133.81 30.5714Z" fill="#DCE5E5"/>
<path d="M81.5239 34.6667L82.6667 27.8095L82.8572 34.6667H84.1905L86.6667 27.8095L85.6191 34.6667H87.6191L89.1429 25.5238H86.762L84.0953 31.1429L84.0001 25.5238H82.9525L79.7144 34.6667H81.5239Z" fill="#DCE5E5"/>
<path d="M109.048 34.6667H111.048C111.619 31.5238 111.715 28.9524 113.048 29.4286C113.238 28.1905 113.524 27.7143 113.715 27.2381C113.715 27.2381 113.619 27.2381 113.334 27.2381C112.476 27.2381 111.81 28.381 111.81 28.381L112 27.3333" fill="#DCE5E5"/>
<path d="M120.286 29.1429C120.286 29.1429 121.143 28.7619 122.381 28.7619C123.048 28.7619 123.619 28.8571 123.619 29.4286C123.619 29.8095 123.524 29.9048 123.524 29.9048C123.524 29.9048 122.953 29.9048 122.667 29.9048C121.048 29.9048 119.238 30.5714 119.238 32.7619C119.238 34.4762 120.381 34.8571 121.048 34.8571C122.381 34.8571 122.953 34 123.048 34L122.953 34.7619H124.667L125.429 29.5238C125.429 27.3333 123.524 27.2381 122.762 27.2381L120.286 29.1429ZM124.191 31.3333C124.191 31.619 123.048 33.1429 121.905 33.1429C121.334 33.1429 121.143 32.6667 121.143 32.3809C121.143 31.9048 121.429 31.2381 122.857 31.2381C123.238 31.3333 124.191 31.3333 124.191 31.3333Z" fill="#DCE5E5"/>
<path d="M125.048 34.6667H127.048C127.619 31.5238 127.715 28.9524 129.048 29.4286C129.238 28.1905 129.524 27.7143 129.715 27.2381C129.715 27.2381 129.619 27.2381 129.334 27.2381C128.476 27.2381 127.81 28.381 127.81 28.381L128 27.3333" fill="#DCE5E5"/>
</g>
<g clip-path="url(#clip1)">
<path d="M201.429 25.6428C200 25.6428 198.857 26.0237 197.905 26.2142L197.619 28.4047C198.095 28.2142 199.429 27.8333 200.571 27.738C201.714 27.738 202.381 27.9285 202.19 28.9761C198.762 28.9761 196.476 29.6428 196 31.9285C195.333 35.738 199.524 35.8333 201.143 34.119L200.952 35.1666H204L205.333 28.9761C205.809 26.4047 203.524 25.5476 201.429 25.6428ZM201.619 32.0237C201.429 32.7856 200.762 33.0714 200 33.1666C199.333 33.1666 198.762 32.7856 199.143 32.0237C199.524 31.4523 200.381 31.4523 201.048 31.4523C201.238 31.4523 201.524 31.4523 201.809 31.4523C201.714 31.3571 201.619 31.738 201.619 32.0237Z" fill="#32A6CE"/>
<path d="M197.619 28.4048C198.095 28.2143 199.429 27.8333 200.571 27.7381C201.714 27.7381 202.381 27.9286 202.19 28.9762C198.762 28.9762 196.476 29.6429 196 31.9286C195.333 35.7381 199.524 35.8333 201.143 34.119L200.952 35.1667H204L205.333 28.9762C205.905 26.4048 203.524 25.7381 201.429 25.7381L197.619 28.4048ZM201.619 32.0238C201.429 32.7857 200.762 33.0714 200 33.1667C199.333 33.1667 198.762 32.7857 199.143 32.0238C199.524 31.4524 200.381 31.4524 201.048 31.4524C201.238 31.4524 201.524 31.4524 201.809 31.4524C201.714 31.3571 201.619 31.7381 201.619 32.0238Z" fill="#1A80AD"/>
<path d="M207.905 22.7857L205.429 35.1667H208.476L211.048 22.7857H207.905Z" fill="#32A6CE"/>
<path d="M210.095 22.7857L205.429 35.1667H208.476L211.048 22.7857H207.905H210.095Z" fill="#1A80AD"/>
<path d="M193.714 22.7857H188.095L185.619 35.1667H188.952L189.81 31.3571H192.191C194.476 31.3571 196.381 30.0238 196.857 27.6428C197.333 24.8809 195.333 22.7857 193.714 22.7857ZM193.619 27.0714C193.429 27.9286 192.572 28.5 191.714 28.5H190.191L190.857 25.6428H192.476C193.333 25.6428 193.81 26.2143 193.619 27.0714Z" fill="#32A6CE"/>
<path d="M193.714 22.7857H189.905L185.524 35.1667H188.857L189.714 31.3571H192.095C194.381 31.3571 196.286 30.0238 196.762 27.6428C197.333 24.8809 195.333 22.7857 193.714 22.7857ZM193.619 27.0714C193.429 27.9286 192.572 28.5 191.714 28.5H190.191L190.857 25.6428H192.476C193.333 25.6428 193.81 26.2143 193.619 27.0714Z" fill="#1A80AD"/>
<path d="M171.714 25.6428C170.286 25.6428 169.143 26.0237 168.286 26.2142L168 28.4047C168.381 28.2142 169.809 27.8333 170.952 27.738C172.095 27.738 172.762 27.9285 172.571 28.9761C169.238 28.9761 166.952 29.6428 166.476 31.9285C165.809 35.738 169.905 35.8333 171.524 34.119L171.333 35.1666H174.381L175.714 28.9761C176.19 26.4047 173.809 25.5476 171.714 25.6428ZM172 32.0237C171.809 32.7856 171.143 33.0714 170.381 33.1666C169.714 33.1666 169.143 32.7856 169.619 32.0237C170 31.4523 170.857 31.4523 171.428 31.4523C171.714 31.4523 171.905 31.4523 172.19 31.4523C172.095 31.3571 172 31.738 172 32.0237Z" fill="#21789E"/>
<path d="M168.095 28.4048C168.476 28.2143 169.905 27.8333 171.047 27.7381C172.19 27.7381 172.857 27.9286 172.666 28.9762C169.333 28.9762 167.047 29.6429 166.571 31.9286C165.905 35.7381 170 35.8333 171.619 34.119L171.333 35.1667H174.381L175.714 28.9762C176.286 26.4048 173.905 25.7381 171.809 25.7381L168.095 28.4048ZM172 32.0238C171.809 32.7857 171.143 33.0714 170.381 33.1667C169.714 33.1667 169.143 32.7857 169.619 32.0238C170 31.4524 170.857 31.4524 171.428 31.4524C171.714 31.4524 171.905 31.4524 172.19 31.4524C172.095 31.3571 172 31.7381 172 32.0238Z" fill="#1A5B80"/>
<path d="M176.952 25.6428H180L180.476 30.9762L183.524 25.6428H186.667L179.429 38.9762H176L178.19 34.9762L176.952 25.6428Z" fill="#21789E"/>
<path d="M180 25.8333L180.476 31.0714L183.524 25.6428H186.667L179.429 38.9762H176L178.19 35.0714" fill="#1A5B80"/>
<path d="M164.19 22.7857H158.476L156 35.1667H159.333L160.19 31.3571H162.571C164.857 31.3571 166.762 30.0238 167.238 27.6428C167.81 24.8809 165.81 22.7857 164.19 22.7857ZM164.095 27.0714C163.905 27.9286 163.048 28.5 162.19 28.5H160.667L161.333 25.6428H162.952C163.81 25.6428 164.286 26.2143 164.095 27.0714Z" fill="#21789E"/>
<path d="M164.19 22.7857H161.619L156 35.1667H159.333L160.19 31.3571H162.571C164.857 31.3571 166.762 30.0238 167.238 27.6428C167.81 24.8809 165.81 22.7857 164.19 22.7857ZM164.095 27.0714C163.905 27.9286 163.048 28.5 162.19 28.5H160.667L161.333 25.6428H162.952C163.81 25.6428 164.286 26.2143 164.095 27.0714Z" fill="#1A5B80"/>
<path d="M171.143 28.9761C168.571 29.1666 166.857 29.9285 166.476 31.8333C165.809 35.6428 169.905 35.738 171.524 34.0238L171.333 35.1666H174.381L174.857 32.8809L171.143 28.9761ZM172 32.0238C171.809 32.7857 171.143 33.0714 170.381 33.1666C169.714 33.1666 169.143 32.7857 169.619 32.0238C170 31.4523 170.857 31.4523 171.428 31.4523C171.714 31.4523 171.905 31.4523 172.19 31.4523C172.095 31.3571 172 31.738 172 32.0238Z" fill="#06435E"/>
<path d="M180.667 30.8809L180.476 31.1666L182.476 33.0714L186.667 25.6428H183.524L180.667 30.8809Z" fill="#06435E"/>
<path d="M159.333 35.1666L160.19 31.3571L156.286 35.1666H159.333Z" fill="#06435E"/>
<path d="M188.857 35.1667L189.714 31.1667V31.2619L185.81 35.1667H188.857Z" fill="#2273AA"/>
<path d="M200.762 28.9762C198.19 29.1667 196.476 29.9286 196.095 31.8333C195.428 35.6429 199.619 35.7381 201.238 34.0238L200.952 35.1667H204L204.476 32.881L200.762 28.9762ZM201.619 32.0238C201.428 32.7857 200.762 33.0714 200 33.1667C199.333 33.1667 198.762 32.7857 199.143 32.0238C199.524 31.4524 200.381 31.4524 201.048 31.4524C201.238 31.4524 201.524 31.4524 201.809 31.4524C201.714 31.3571 201.619 31.7381 201.619 32.0238Z" fill="#2273AA"/>
<path d="M207.619 29.5476L205.429 35.1667H208.476L209.333 31.3571L207.619 29.5476Z" fill="#2273AA"/>
<path d="M211.714 24.7858V23.4524H211.238V23.262H212.476V23.4524H212V24.7858H211.714Z" fill="#32A6CE"/>
<path d="M212.667 24.7857V23.2619H212.953L213.334 24.3095C213.334 24.4048 213.429 24.5 213.429 24.5C213.429 24.4048 213.429 24.4048 213.524 24.2143L213.905 23.1667H214.191V24.6905H214V23.3572L213.524 24.6905H213.238L212.762 23.3572V24.6905H212.667V24.7857Z" fill="#32A6CE"/>
</g>
<g clip-path="url(#clip2)">
<path d="M22 38.6191L25.0476 21.4762H29.8095L26.8571 38.6191H22Z" fill="#3C58BF"/>
<path d="M22 38.6191L25.9048 21.4762H29.8095L26.8571 38.6191H22Z" fill="#293688"/>
<path d="M44.0954 21.6667C43.143 21.2857 41.6192 20.9048 39.7144 20.9048C34.9525 20.9048 31.5239 23.2857 31.5239 26.7143C31.5239 29.2857 33.9049 30.6191 35.8096 31.4762C37.7144 32.3334 38.2858 32.9048 38.2858 33.6667C38.2858 34.8095 36.762 35.381 35.4287 35.381C33.5239 35.381 32.4763 35.0953 30.8573 34.4286L30.1906 34.1429L29.5239 38.0476C30.6668 38.5238 32.762 39 34.9525 39C40.0001 39 43.3334 36.6191 43.3334 33C43.3334 31 42.0954 29.4762 39.2382 28.2381C37.5239 27.381 36.4763 26.9048 36.4763 26.0476C36.4763 25.2857 37.3334 24.5238 39.2382 24.5238C40.8573 24.5238 42.0001 24.8095 42.8573 25.1905L43.3334 25.381L44.0954 21.6667Z" fill="#3C58BF"/>
<path d="M44.0954 21.6667C43.143 21.2857 41.6192 20.9048 39.7144 20.9048C34.9525 20.9048 32.3811 23.2857 32.3811 26.7143C32.3811 29.2857 33.9049 30.6191 35.8096 31.4762C37.7144 32.3334 38.2858 32.9048 38.2858 33.6667C38.2858 34.8095 36.762 35.381 35.4287 35.381C33.5239 35.381 32.4763 35.0953 30.8573 34.4286L30.1906 34.1429L29.5239 38.0476C30.6668 38.5238 32.762 39 34.9525 39C40.0001 39 43.3334 36.6191 43.3334 33C43.3334 31 42.0954 29.4762 39.2382 28.2381C37.5239 27.381 36.4763 26.9048 36.4763 26.0476C36.4763 25.2857 37.3334 24.5238 39.2382 24.5238C40.8573 24.5238 42.0001 24.8095 42.8573 25.1905L43.3334 25.381L44.0954 21.6667Z" fill="#293688"/>
<path d="M52.2856 21.4762C51.1427 21.4762 50.2856 21.5714 49.8094 22.7143L42.6665 38.6191H47.8094L48.7617 35.7619H54.857L55.4284 38.6191H59.9998L55.9998 21.4762H52.2856V21.4762ZM50.0951 32.9048C50.3808 32.0476 51.9998 27.8571 51.9998 27.8571C51.9998 27.8571 52.3808 26.8095 52.6665 26.1429L52.9522 27.7619C52.9522 27.7619 53.9046 32.0476 54.0951 33H50.0951V32.9048Z" fill="#3C58BF"/>
<path d="M53.4284 21.4762C52.2856 21.4762 51.4284 21.5714 50.9522 22.7143L42.6665 38.6191H47.8094L48.7617 35.7619H54.857L55.4284 38.6191H59.9998L55.9998 21.4762H53.4284V21.4762ZM50.0951 32.9048C50.476 31.9524 51.9998 27.8571 51.9998 27.8571C51.9998 27.8571 52.3808 26.8095 52.6665 26.1429L52.9522 27.7619C52.9522 27.7619 53.9046 32.0476 54.0951 33H50.0951V32.9048Z" fill="#293688"/>
<path d="M13.2381 33.4762L12.7619 31C11.9047 28.1429 9.14283 25 6.09521 23.4762L10.3809 38.7143H15.5238L23.2381 21.5715H18.0952L13.2381 33.4762Z" fill="#3C58BF"/>
<path d="M13.2381 33.4762L12.7619 31C11.9047 28.1429 9.14283 25 6.09521 23.4762L10.3809 38.7143H15.5238L23.2381 21.5715H19.0476L13.2381 33.4762Z" fill="#293688"/>
<path d="M0 21.4762L0.857143 21.6667C6.95238 23.0952 11.1429 26.7143 12.7619 31L11.0476 22.9048C10.7619 21.7619 9.90476 21.4762 8.85714 21.4762H0V21.4762Z" fill="#FFBC00"/>
<path d="M0 21.4762C6.09524 22.9048 11.1429 26.6191 12.7619 30.9048L11.1429 24.1429C10.8571 23 9.90476 22.3333 8.85714 22.3333L0 21.4762Z" fill="#F7981D"/>
<path d="M0 21.4762C6.09524 22.9048 11.1429 26.6191 12.7619 30.9048L11.619 27.1905C11.3333 26.0476 10.9524 24.9048 9.61905 24.4286L0 21.4762Z" fill="#ED7C00"/>
<path d="M18 32.9047L14.7619 29.6666L13.238 33.2857L12.8571 30.9047C12 28.0476 9.23805 24.9047 6.19043 23.3809L10.4761 38.619H15.619L18 32.9047Z" fill="#051244"/>
<path d="M26.8571 38.619L22.7619 34.4285L22 38.619H26.8571Z" fill="#051244"/>
<path d="M37.8096 32.7142C38.1906 33.0952 38.3811 33.3809 38.2858 33.7619C38.2858 34.9047 36.762 35.4761 35.4287 35.4761C33.5239 35.4761 32.4763 35.1904 30.8573 34.5238L30.1906 34.238L29.5239 38.1428C30.6668 38.619 32.762 39.0952 34.9525 39.0952C38.0001 39.0952 40.4763 38.238 41.9049 36.7142L37.8096 32.7142Z" fill="#051244"/>
<path d="M43.3335 38.619H47.8097L48.7621 35.7619H54.8573L55.4287 38.619H60.0002L58.3811 31.6666L52.6668 26.1428L52.9525 27.6666C52.9525 27.6666 53.9049 31.9523 54.0954 32.9047H50.0954C50.4764 31.9523 52.0002 27.8571 52.0002 27.8571C52.0002 27.8571 52.3811 26.8095 52.6668 26.1428" fill="#051244"/>
</g>
<defs>
<clipPath id="clip0">
<rect width="60" height="60" fill="white" transform="translate(78)"/>
</clipPath>
<clipPath id="clip1">
<rect width="58.1905" height="58.1905" fill="white" transform="translate(156 1.78571)"/>
</clipPath>
<clipPath id="clip2">
<rect width="60" height="60" fill="white"/>
</clipPath>
</defs>
</svg>
