<svg width="48" height="48" viewBox="0 0 48 48" fill="none" xmlns="http://www.w3.org/2000/svg">
<path d="M43.5 10.5H4.5C3.5058 10.5012 2.55267 10.8967 1.84966 11.5997C1.14666 12.3027 0.751191 13.2558 0.75 14.25V33.75C0.751191 34.7442 1.14666 35.6973 1.84966 36.4003C2.55267 37.1033 3.5058 37.4988 4.5 37.5H17.6423L16.7423 39.75H12.75C12.5511 39.75 12.3603 39.829 12.2197 39.9697C12.079 40.1103 12 40.3011 12 40.5V42.75C12 42.9489 12.079 43.1397 12.2197 43.2803C12.3603 43.421 12.5511 43.5 12.75 43.5H35.25C35.4489 43.5 35.6397 43.421 35.7803 43.2803C35.921 43.1397 36 42.9489 36 42.75V40.5C36 40.3011 35.921 40.1103 35.7803 39.9697C35.6397 39.829 35.4489 39.75 35.25 39.75H31.2577L30.3577 37.5H43.5C44.4942 37.4988 45.4473 37.1033 46.1503 36.4003C46.8533 35.6973 47.2488 34.7442 47.25 33.75V14.25C47.2488 13.2558 46.8533 12.3027 46.1503 11.5997C45.4473 10.8967 44.4942 10.5012 43.5 10.5ZM2.25 14.25C2.25 13.6533 2.48705 13.081 2.90901 12.659C3.33097 12.2371 3.90326 12 4.5 12H43.5C44.0967 12 44.669 12.2371 45.091 12.659C45.5129 13.081 45.75 13.6533 45.75 14.25V32.25H2.25V14.25ZM34.5 42H13.5V41.25H34.5V42ZM29.6423 39.75H18.3577L19.2577 37.5H28.7423L29.6423 39.75ZM43.5 36H4.5C3.90326 36 3.33097 35.7629 2.90901 35.341C2.48705 34.919 2.25 34.3467 2.25 33.75H45.75C45.75 34.3467 45.5129 34.919 45.091 35.341C44.669 35.7629 44.0967 36 43.5 36Z" fill="white"/>
<path d="M9.75 13.5H4.5C4.30109 13.5 4.11032 13.579 3.96967 13.7197C3.82902 13.8603 3.75 14.0511 3.75 14.25C3.75 14.4489 3.82902 14.6397 3.96967 14.7803C4.11032 14.921 4.30109 15 4.5 15H9.75C9.94891 15 10.1397 14.921 10.2803 14.7803C10.421 14.6397 10.5 14.4489 10.5 14.25C10.5 14.0511 10.421 13.8603 10.2803 13.7197C10.1397 13.579 9.94891 13.5 9.75 13.5Z" fill="white"/>
<path d="M12.75 13.5H12C11.8011 13.5 11.6103 13.579 11.4697 13.7197C11.329 13.8603 11.25 14.0511 11.25 14.25C11.25 14.4489 11.329 14.6397 11.4697 14.7803C11.6103 14.921 11.8011 15 12 15H12.75C12.9489 15 13.1397 14.921 13.2803 14.7803C13.421 14.6397 13.5 14.4489 13.5 14.25C13.5 14.0511 13.421 13.8603 13.2803 13.7197C13.1397 13.579 12.9489 13.5 12.75 13.5Z" fill="white"/>
</svg>
