<svg width="48" height="48" viewBox="0 0 48 48" fill="none" xmlns="http://www.w3.org/2000/svg">
<path d="M24 0C10.7666 0 0 10.7666 0 24C0 37.2334 10.7666 48 24 48C37.2334 48 48 37.2334 48 24C48 10.7666 37.2334 0 24 0ZM24 46.2857C11.7111 46.2857 1.71429 36.288 1.71429 24C1.71429 11.712 11.7111 1.71429 24 1.71429C36.2889 1.71429 46.2857 11.712 46.2857 24C46.2857 36.288 36.2889 46.2857 24 46.2857Z" fill="white"/>
<path d="M34.2855 13.7143H13.7141C13.2401 13.7143 12.8569 14.0983 12.8569 14.5714C12.8569 15.0446 13.2401 15.4286 13.7141 15.4286H34.2855C34.7595 15.4286 35.1426 15.0446 35.1426 14.5714C35.1426 14.0983 34.7595 13.7143 34.2855 13.7143Z" fill="white"/>
<path d="M34.2855 23.1429H13.7141C13.2401 23.1429 12.8569 23.5269 12.8569 24C12.8569 24.4731 13.2401 24.8571 13.7141 24.8571H34.2855C34.7595 24.8571 35.1426 24.4731 35.1426 24C35.1426 23.5269 34.7595 23.1429 34.2855 23.1429Z" fill="white"/>
<path d="M34.2855 32.5714H13.7141C13.2401 32.5714 12.8569 32.9554 12.8569 33.4286C12.8569 33.9017 13.2401 34.2857 13.7141 34.2857H34.2855C34.7595 34.2857 35.1426 33.9017 35.1426 33.4286C35.1426 32.9554 34.7595 32.5714 34.2855 32.5714Z" fill="white"/>
</svg>
