<svg width="49" height="48" xmlns="http://www.w3.org/2000/svg" xmlns:xlink="http://www.w3.org/1999/xlink"><use xlink:href="#path0_fill" transform="translate(.67)" fill="#FFF"/><use xlink:href="#path1_fill" transform="translate(12.13 11.76)" fill="#F2F2F2"/><use xlink:href="#path2_fill" transform="translate(10.93 10.26)"/><use xlink:href="#path3_fill" transform="translate(17.56 16.89)"/><g fill="#333"><use xlink:href="#path4_fill" transform="translate(30.08 15.24)"/><use xlink:href="#path5_fill" transform="translate(24.61 10.26)"/><use xlink:href="#path6_fill" transform="translate(24.61 16.89)"/></g><defs><path id="path0_fill" fill-rule="evenodd" d="M24 48c13.255 0 24-10.745 24-24S37.255 0 24 0 0 10.745 0 24s10.745 24 24 24z"/><path id="path1_fill" fill-rule="evenodd" d="M23.663.706c-2.867.363-5.857.35-8.866.064C10.595.447 4.454-1.493 2.191 2.386c-3.635 6.21-1.842 14.16-.995 21.195L13.828 36.21c12.223-.65 22.02-10.445 22.671-22.668L23.663.706z"/><path id="path2_fill" fill-rule="evenodd" d="M19.29 0H8.185C3.672 0 0 3.672 0 8.185V19.29c0 4.513 3.672 8.185 8.185 8.185H19.29c4.513 0 8.185-3.672 8.185-8.185V8.185C27.475 3.672 23.803 0 19.29 0zm5.42 19.29a5.42 5.42 0 0 1-5.42 5.421H8.185a5.42 5.42 0 0 1-5.421-5.42V8.184a5.42 5.42 0 0 1 5.42-5.42H19.29a5.421 5.421 0 0 1 5.42 5.42V19.29z"/><path id="path3_fill" fill-rule="evenodd" d="M7.106 0A7.114 7.114 0 0 0 0 7.106c0 3.918 3.188 7.106 7.106 7.106a7.114 7.114 0 0 0 7.106-7.106C14.212 3.188 11.024 0 7.106 0zm0 11.448a4.342 4.342 0 1 1 0-8.684 4.342 4.342 0 0 1 0 8.684z"/><path id="path4_fill" fill-rule="evenodd" d="M3.406 1.703a1.703 1.703 0 1 1-3.406 0 1.703 1.703 0 0 1 3.406 0z"/><path id="path5_fill" fill-rule="evenodd" d="M5.606 0H0v2.764h5.606a5.42 5.42 0 0 1 5.421 5.42V19.29a5.42 5.42 0 0 1-5.42 5.42H0v2.765h5.606c4.513 0 8.185-3.672 8.185-8.185V8.185C13.791 3.672 10.12 0 5.606 0z"/><path id="path6_fill" fill-rule="evenodd" d="M.054 0L0 .001v2.764l.054-.001a4.342 4.342 0 1 1 0 8.684L0 11.447v2.764h.054A7.114 7.114 0 0 0 7.16 7.107C7.16 3.188 3.972 0 .054 0z"/></defs></svg>