<svg width="244" height="128" viewBox="0 0 244 128" fill="none" xmlns="http://www.w3.org/2000/svg">
<g id="icon" filter="url(#filter0_d)">
<g id="icon_2">
<g id="box">
<path fill-rule="evenodd" clip-rule="evenodd" d="M25 32C25 25.3726 30.3726 20 37 20H73C79.6274 20 85 25.3726 85 32V68C85 74.6274 79.6274 80 73 80H37C30.3726 80 25 74.6274 25 68V32Z" fill="url(#paint0_linear)"/>
<path fill-rule="evenodd" clip-rule="evenodd" d="M25 32C25 25.3726 30.3726 20 37 20H73C79.6274 20 85 25.3726 85 32V68C85 74.6274 79.6274 80 73 80H37C30.3726 80 25 74.6274 25 68V32Z" fill="url(#paint1_linear)"/>
</g>
<g id="fullscreen-symbol">
<path id="Vector" d="M61.0076 53.7002C61.0077 53.8752 61.0673 54.0225 61.187 54.1422C61.2422 54.1974 61.3114 54.2436 61.3943 54.2803C61.6521 54.3816 61.8777 54.3355 62.071 54.1422L65.1646 51.0486C65.2843 50.9289 65.3441 50.7817 65.344 50.6066C65.3442 50.4318 65.2842 50.2844 65.1645 50.1647L62.0709 47.0711C61.8776 46.8779 61.6498 46.8341 61.3872 46.9398C61.1296 47.0413 61.0029 47.2322 61.0076 47.513L61.0075 49.5017L56.1048 49.5017L56.1049 44.5989H58.0936C58.3744 44.6036 58.5654 44.4769 58.6668 44.2192C58.7726 43.9567 58.7289 43.7289 58.5356 43.5356L55.442 40.442C55.3222 40.3222 55.1749 40.2624 55 40.2624C54.825 40.2624 54.6777 40.3223 54.558 40.442L51.4645 43.5355C51.2711 43.7289 51.2274 43.9568 51.3332 44.2191C51.3656 44.2973 51.4092 44.3642 51.4644 44.4195C51.5841 44.5392 51.7315 44.5989 51.9064 44.599L53.895 44.599L53.895 49.5018L48.9924 49.5016L48.9925 47.5129C48.9971 47.232 48.8705 47.0412 48.6127 46.9396C48.3502 46.8339 48.1223 46.8777 47.9289 47.0711L44.8354 50.1646C44.7157 50.2843 44.6558 50.4316 44.6558 50.6066C44.6559 50.7815 44.7158 50.9288 44.8355 51.0485L47.9291 54.142C48.1225 54.3354 48.3503 54.3792 48.6126 54.2734C48.8705 54.1719 48.997 53.981 48.9925 53.7001L48.9923 51.7115L53.8952 51.7114L53.895 56.6143L51.9063 56.6142C51.6256 56.6095 51.4345 56.7363 51.3332 56.9939C51.2273 57.2564 51.2711 57.4844 51.4645 57.6778L54.5581 60.7713C54.6777 60.891 54.8252 60.9508 55.0001 60.9508C55.1748 60.9508 55.3222 60.8908 55.4419 60.7711L58.5354 57.6776C58.7287 57.4843 58.7749 57.2587 58.6736 57.0007C58.5631 56.7339 58.3699 56.6049 58.0934 56.6142H56.105L56.1048 51.7114L61.0076 51.7115L61.0076 53.7002Z" fill="white"/>
</g>
<g id="Vector_2">
<path d="M87.5 36.5L98.7974 38.8877L95.2165 27.91L87.5 36.5ZM151 53.4999L149.779 42.0176L140.446 48.8159L151 53.4999ZM93.4054 35.7811C94.6696 35.4568 95.93 35.1693 97.1854 34.9187L96.7939 32.9574C95.5026 33.2152 94.207 33.5107 92.9084 33.8439L93.4054 35.7811ZM101.009 34.2673C102.3 34.0853 103.584 33.9431 104.859 33.8408L104.699 31.8472C103.383 31.9528 102.059 32.0994 100.729 32.2869L101.009 34.2673ZM108.724 33.6519C110.024 33.6298 111.313 33.6503 112.589 33.7134L112.688 31.7158C111.366 31.6505 110.033 31.6294 108.69 31.6522L108.724 33.6519ZM116.441 34.0376C117.727 34.1917 118.999 34.3909 120.254 34.6354L120.637 32.6722C119.333 32.4183 118.013 32.2116 116.678 32.0518L116.441 34.0376ZM124.009 35.5155C125.253 35.8579 126.478 36.2473 127.681 36.6838L128.363 34.8036C127.109 34.3489 125.834 33.9435 124.54 33.5872L124.009 35.5155ZM131.246 38.1426C132.413 38.6771 133.557 39.2594 134.676 39.8895L135.657 38.1467C134.489 37.4891 133.296 36.8817 132.078 36.3242L131.246 38.1426ZM137.948 41.9168C139.004 42.6347 140.035 43.3995 141.037 44.2116L142.296 42.6574C141.25 41.8101 140.175 41.0118 139.072 40.2626L137.948 41.9168ZM143.925 46.7565C144.845 47.6364 145.736 48.5612 146.597 49.531L148.093 48.2026C147.195 47.1928 146.267 46.2292 145.308 45.3118L143.925 46.7565Z" fill="black"/>
<path d="M87.5 36.5L98.7974 38.8877L95.2165 27.91L87.5 36.5ZM151 53.4999L149.779 42.0176L140.446 48.8159L151 53.4999ZM93.4054 35.7811C94.6696 35.4568 95.93 35.1693 97.1854 34.9187L96.7939 32.9574C95.5026 33.2152 94.207 33.5107 92.9084 33.8439L93.4054 35.7811ZM101.009 34.2673C102.3 34.0853 103.584 33.9431 104.859 33.8408L104.699 31.8472C103.383 31.9528 102.059 32.0994 100.729 32.2869L101.009 34.2673ZM108.724 33.6519C110.024 33.6298 111.313 33.6503 112.589 33.7134L112.688 31.7158C111.366 31.6505 110.033 31.6294 108.69 31.6522L108.724 33.6519ZM116.441 34.0376C117.727 34.1917 118.999 34.3909 120.254 34.6354L120.637 32.6722C119.333 32.4183 118.013 32.2116 116.678 32.0518L116.441 34.0376ZM124.009 35.5155C125.253 35.8579 126.478 36.2473 127.681 36.6838L128.363 34.8036C127.109 34.3489 125.834 33.9435 124.54 33.5872L124.009 35.5155ZM131.246 38.1426C132.413 38.6771 133.557 39.2594 134.676 39.8895L135.657 38.1467C134.489 37.4891 133.296 36.8817 132.078 36.3242L131.246 38.1426ZM137.948 41.9168C139.004 42.6347 140.035 43.3995 141.037 44.2116L142.296 42.6574C141.25 41.8101 140.175 41.0118 139.072 40.2626L137.948 41.9168ZM143.925 46.7565C144.845 47.6364 145.736 48.5612 146.597 49.531L148.093 48.2026C147.195 47.1928 146.267 46.2292 145.308 45.3118L143.925 46.7565Z" fill="url(#paint2_linear)"/>
</g>
<g id="outline">
<path fill-rule="evenodd" clip-rule="evenodd" d="M157 48C157 41.3726 162.373 36 169 36H205C211.627 36 217 41.3726 217 48V84C217 90.6274 211.627 96 205 96H169C162.373 96 157 90.6274 157 84V48Z" stroke="url(#paint3_linear)" stroke-width="4" stroke-linecap="round" stroke-linejoin="round" stroke-dasharray="1 8"/>
<path fill-rule="evenodd" clip-rule="evenodd" d="M157 48C157 41.3726 162.373 36 169 36H205C211.627 36 217 41.3726 217 48V84C217 90.6274 211.627 96 205 96H169C162.373 96 157 90.6274 157 84V48Z" stroke="url(#paint4_linear)" stroke-width="4" stroke-linecap="round" stroke-linejoin="round" stroke-dasharray="1 8"/>
</g>
</g>
<g id="clicker">
<g id="Exclude">
<path fill-rule="evenodd" clip-rule="evenodd" d="M125.265 45.9974C124.9 45.9974 124.552 46.0738 124.237 46.2111C123.853 45.2381 122.912 44.5483 121.813 44.5483C121.405 44.5483 121.019 44.6436 120.675 44.813C120.239 43.9705 119.366 43.3935 118.362 43.3935C118.067 43.3935 117.783 43.444 117.518 43.5359V40.635C117.518 39.1821 116.348 38 114.91 38C113.472 38 112.302 39.1821 112.302 40.635V51.0736L110.424 48.9174C110.411 48.9026 110.397 48.8882 110.383 48.8743C109.89 48.3791 109.234 48.1045 108.535 48.1011C108.53 48.1011 108.526 48.1011 108.522 48.1011C107.825 48.1011 107.172 48.3711 106.683 48.8622C105.82 49.7278 105.773 51.0127 106.552 52.3878C107.561 54.1668 108.658 55.8442 109.626 57.3244C110.334 58.4061 111.002 59.4278 111.49 60.2725C111.914 61.0056 113.038 63.383 113.05 63.407C113.195 63.7159 113.506 63.9128 113.846 63.9128H125C125.383 63.9128 125.723 63.6648 125.84 63.299C126.048 62.65 127.873 56.8952 127.873 54.6727V48.6326C127.873 47.1794 126.703 45.9974 125.265 45.9974ZM124.422 48.6326C124.422 48.1555 124.8 47.7674 125.265 47.7674C125.73 47.7674 126.109 48.1555 126.109 48.6326V54.6727C126.109 56.1496 124.977 60.1202 124.353 62.1427H114.403C114.037 61.3791 113.351 59.9646 113.016 59.3845C112.503 58.4974 111.822 57.4559 111.101 56.3532C110.148 54.8952 109.067 53.2426 108.085 51.5125C107.829 51.0604 107.594 50.451 107.931 50.1137C108.087 49.956 108.299 49.8737 108.526 49.8712C108.749 49.8724 108.958 49.9565 109.118 50.1086L112.52 54.0134C112.762 54.2911 113.15 54.3891 113.494 54.2596C113.838 54.1299 114.066 53.7997 114.066 53.431V40.635C114.066 40.158 114.445 39.7701 114.91 39.7701C115.376 39.7701 115.754 40.158 115.754 40.635V48.8984C115.754 49.3872 116.149 49.7835 116.636 49.7835C117.123 49.7835 117.518 49.3872 117.518 48.8984V46.0283C117.518 45.5516 117.897 45.1637 118.362 45.1637C118.827 45.1637 119.206 45.5516 119.206 46.0283V50.0528C119.206 50.5418 119.601 50.9379 120.088 50.9379C120.575 50.9379 120.97 50.5419 120.97 50.0528V47.1834C120.97 46.7064 121.348 46.3184 121.813 46.3184C122.279 46.3184 122.657 46.7064 122.657 47.1834V51.2081C122.657 51.6968 123.052 52.0933 123.54 52.0933C124.027 52.0933 124.422 51.6968 124.422 51.2081V48.6326H124.422Z" fill="url(#paint5_linear)"/>
<path fill-rule="evenodd" clip-rule="evenodd" d="M125.265 45.9974C124.9 45.9974 124.552 46.0738 124.237 46.2111C123.853 45.2381 122.912 44.5483 121.813 44.5483C121.405 44.5483 121.019 44.6436 120.675 44.813C120.239 43.9705 119.366 43.3935 118.362 43.3935C118.067 43.3935 117.783 43.444 117.518 43.5359V40.635C117.518 39.1821 116.348 38 114.91 38C113.472 38 112.302 39.1821 112.302 40.635V51.0736L110.424 48.9174C110.411 48.9026 110.397 48.8882 110.383 48.8743C109.89 48.3791 109.234 48.1045 108.535 48.1011C108.53 48.1011 108.526 48.1011 108.522 48.1011C107.825 48.1011 107.172 48.3711 106.683 48.8622C105.82 49.7278 105.773 51.0127 106.552 52.3878C107.561 54.1668 108.658 55.8442 109.626 57.3244C110.334 58.4061 111.002 59.4278 111.49 60.2725C111.914 61.0056 113.038 63.383 113.05 63.407C113.195 63.7159 113.506 63.9128 113.846 63.9128H125C125.383 63.9128 125.723 63.6648 125.84 63.299C126.048 62.65 127.873 56.8952 127.873 54.6727V48.6326C127.873 47.1794 126.703 45.9974 125.265 45.9974ZM124.422 48.6326C124.422 48.1555 124.8 47.7674 125.265 47.7674C125.73 47.7674 126.109 48.1555 126.109 48.6326V54.6727C126.109 56.1496 124.977 60.1202 124.353 62.1427H114.403C114.037 61.3791 113.351 59.9646 113.016 59.3845C112.503 58.4974 111.822 57.4559 111.101 56.3532C110.148 54.8952 109.067 53.2426 108.085 51.5125C107.829 51.0604 107.594 50.451 107.931 50.1137C108.087 49.956 108.299 49.8737 108.526 49.8712C108.749 49.8724 108.958 49.9565 109.118 50.1086L112.52 54.0134C112.762 54.2911 113.15 54.3891 113.494 54.2596C113.838 54.1299 114.066 53.7997 114.066 53.431V40.635C114.066 40.158 114.445 39.7701 114.91 39.7701C115.376 39.7701 115.754 40.158 115.754 40.635V48.8984C115.754 49.3872 116.149 49.7835 116.636 49.7835C117.123 49.7835 117.518 49.3872 117.518 48.8984V46.0283C117.518 45.5516 117.897 45.1637 118.362 45.1637C118.827 45.1637 119.206 45.5516 119.206 46.0283V50.0528C119.206 50.5418 119.601 50.9379 120.088 50.9379C120.575 50.9379 120.97 50.5419 120.97 50.0528V47.1834C120.97 46.7064 121.348 46.3184 121.813 46.3184C122.279 46.3184 122.657 46.7064 122.657 47.1834V51.2081C122.657 51.6968 123.052 52.0933 123.54 52.0933C124.027 52.0933 124.422 51.6968 124.422 51.2081V48.6326H124.422Z" fill="url(#paint6_linear)"/>
</g>
</g>
</g>
<defs>
<filter id="filter0_d" x="0" y="0" width="244" height="128" filterUnits="userSpaceOnUse" color-interpolation-filters="sRGB">
<feFlood flood-opacity="0" result="BackgroundImageFix"/>
<feColorMatrix in="SourceAlpha" type="matrix" values="0 0 0 0 0 0 0 0 0 0 0 0 0 0 0 0 0 0 127 0"/>
<feOffset dy="5"/>
<feGaussianBlur stdDeviation="12.5"/>
<feColorMatrix type="matrix" values="0 0 0 0 0 0 0 0 0 0 0 0 0 0 0 0 0 0 0.15 0"/>
<feBlend mode="normal" in2="BackgroundImageFix" result="effect1_dropShadow"/>
<feBlend mode="normal" in="SourceGraphic" in2="effect1_dropShadow" result="shape"/>
</filter>
<linearGradient id="paint0_linear" x1="55" y1="20" x2="55" y2="80" gradientUnits="userSpaceOnUse">
<stop stop-color="#EB5757"/>
<stop offset="0.972376" stop-color="#F2821E"/>
</linearGradient>
<linearGradient id="paint1_linear" x1="55" y1="20" x2="55" y2="80" gradientUnits="userSpaceOnUse">
<stop stop-color="#9B51E0"/>
<stop offset="0.977901" stop-color="#2480C3"/>
</linearGradient>
<linearGradient id="paint2_linear" x1="119" y1="37.7127" x2="119" y2="51" gradientUnits="userSpaceOnUse">
<stop stop-color="#9B51E0"/>
<stop offset="0.977901" stop-color="#2480C3"/>
</linearGradient>
<linearGradient id="paint3_linear" x1="187" y1="36" x2="187" y2="96" gradientUnits="userSpaceOnUse">
<stop stop-color="#EB5757"/>
<stop offset="0.972376" stop-color="#F2821E"/>
</linearGradient>
<linearGradient id="paint4_linear" x1="187" y1="36" x2="187" y2="96" gradientUnits="userSpaceOnUse">
<stop stop-color="#9B51E0"/>
<stop offset="0.977901" stop-color="#2480C3"/>
</linearGradient>
<linearGradient id="paint5_linear" x1="116.937" y1="38" x2="116.937" y2="63.9128" gradientUnits="userSpaceOnUse">
<stop stop-color="#EB5757"/>
<stop offset="0.972376" stop-color="#F2821E"/>
</linearGradient>
<linearGradient id="paint6_linear" x1="116.937" y1="38" x2="116.937" y2="63.9128" gradientUnits="userSpaceOnUse">
<stop stop-color="#9B51E0"/>
<stop offset="0.977901" stop-color="#2480C3"/>
</linearGradient>
</defs>
</svg>
