<svg width="201" height="103" viewBox="0 0 201 103" version="1.1" xmlns="http://www.w3.org/2000/svg" xmlns:xlink="http://www.w3.org/1999/xlink">
<title>24.7</title>
<desc>Created using Figma</desc>
<g id="Canvas" transform="translate(-1374 -926)">
<g id="24.7" filter="url(#filter0_d)">
<use xlink:href="#path0_fill" transform="translate(1399 928)" fill="url(#paint0_linear)"/>
<use xlink:href="#path0_fill" transform="translate(1399 928)" fill="url(#paint1_linear)"/>
</g>
</g>
<defs>
<filter id="filter0_d" filterUnits="userSpaceOnUse" x="1374" y="926" width="201" height="103" color-interpolation-filters="sRGB">
<feFlood flood-opacity="0" result="BackgroundImageFix"/>
<feColorMatrix in="SourceAlpha" type="matrix" values="0 0 0 0 0 0 0 0 0 0 0 0 0 0 0 0 0 0 255 0"/>
<feOffset dx="0" dy="5"/>
<feGaussianBlur stdDeviation="12.5"/>
<feColorMatrix type="matrix" values="0 0 0 0 0 0 0 0 0 0 0 0 0 0 0 0 0 0 0.15 0"/>
<feBlend mode="normal" in2="BackgroundImageFix" result="effect1_dropShadow"/>
<feBlend mode="normal" in="SourceGraphic" in2="effect1_dropShadow" result="shape"/>
</filter>
<linearGradient id="paint0_linear" x1="0" y1="0" x2="1" y2="0" gradientUnits="userSpaceOnUse" gradientTransform="matrix(119 51 -88.0909 205.545 59.0454 -87.7727)">
<stop offset="0" stop-color="#DB2D66"/>
<stop offset="1" stop-color="#E637A7"/>
</linearGradient>
<linearGradient id="paint1_linear" x1="0" y1="0" x2="1" y2="0" gradientUnits="userSpaceOnUse" gradientTransform="matrix(128.814 49 -84.6364 134.091 53.9114 -47.0455)">
<stop offset="0" stop-color="#901414"/>
<stop offset="0.983425" stop-color="#EB5757"/>
</linearGradient>
<path id="path0_fill" d="M 42.336 57.184L 42.336 70L 2.736 70L 2.664 59.488L 20.304 41.272C 21.408 40.12 22.32 38.968 23.04 37.816C 23.76 36.664 24.12 35.68 24.12 34.864C 24.12 34 23.808 33.352 23.184 32.92C 22.608 32.44 21.768 32.2 20.664 32.2C 18.792 32.2 16.656 32.776 14.256 33.928C 11.856 35.08 9.408 36.664 6.912 38.68L 0.72 26.656C 8.4 21.424 15.912 18.808 23.256 18.808C 26.712 18.808 29.832 19.384 32.616 20.536C 35.4 21.688 37.584 23.296 39.168 25.36C 40.8 27.424 41.616 29.776 41.616 32.416C 41.616 35.152 40.752 37.912 39.024 40.696C 37.296 43.432 34.848 46.36 31.68 49.48L 23.904 57.184L 42.336 57.184ZM 86.4084 48.328L 86.4084 60.28L 80.6484 60.28L 80.6484 70L 65.4564 70L 65.4564 60.28L 43.9284 60.28L 43.9284 49.408L 56.1684 19.528L 71.8644 19.528L 60.4164 48.328L 65.4564 48.328L 65.4564 38.68L 80.6484 38.68L 80.6484 48.328L 86.4084 48.328ZM 98.4493 55.816C 100.657 55.816 102.433 56.512 103.777 57.904C 105.169 59.248 105.865 61 105.865 63.16C 105.865 65.368 105.169 67.168 103.777 68.56C 102.433 69.904 100.657 70.576 98.4493 70.576C 96.2893 70.576 94.5133 69.904 93.1213 68.56C 91.7773 67.168 91.1053 65.368 91.1053 63.16C 91.1053 61 91.7773 59.248 93.1213 57.904C 94.5133 56.512 96.2893 55.816 98.4493 55.816ZM 109.152 19.528L 150.84 19.528L 150.84 30.616L 133.488 70L 115.848 70L 132.48 32.344L 123.84 32.344L 123.84 39.4L 109.152 39.4L 109.152 19.528Z"/>
</defs>
</svg>
