<svg width="122" height="122" viewBox="0 0 122 122" version="1.1" xmlns="http://www.w3.org/2000/svg" xmlns:xlink="http://www.w3.org/1999/xlink">
<title>icon</title>
<desc>Created using Figma</desc>
<g id="Canvas" transform="translate(-957 -640)">
<g id="icon" filter="url(#filter0_d)">
<g id="icon">
<g id="2">
<use xlink:href="#path0_fill" transform="translate(994 684)" fill="url(#paint0_linear)"/>
</g>
<g id="Union">
<use xlink:href="#path1_fill" transform="translate(982 660)" fill="url(#paint1_linear)"/>
</g>
</g>
<g id="clicker">
<g id="Exclude">
<use xlink:href="#path2_fill" transform="translate(1030.06 704)" fill="url(#paint2_linear)"/>
</g>
</g>
</g>
</g>
<defs>
<filter id="filter0_d" filterUnits="userSpaceOnUse" x="957" y="640" width="122" height="122" color-interpolation-filters="sRGB">
<feFlood flood-opacity="0" result="BackgroundImageFix"/>
<feColorMatrix in="SourceAlpha" type="matrix" values="0 0 0 0 0 0 0 0 0 0 0 0 0 0 0 0 0 0 255 0"/>
<feOffset dx="0" dy="5"/>
<feGaussianBlur stdDeviation="12.5"/>
<feColorMatrix type="matrix" values="0 0 0 0 0 0 0 0 0 0 0 0 0 0 0 0 0 0 0.15 0"/>
<feBlend mode="normal" in2="BackgroundImageFix" result="effect1_dropShadow"/>
<feBlend mode="normal" in="SourceGraphic" in2="effect1_dropShadow" result="shape"/>
</filter>
<linearGradient id="paint0_linear" x1="0" y1="0" x2="1" y2="0" gradientUnits="userSpaceOnUse" gradientTransform="matrix(3.67394e-15 24 -60 1.46958e-15 60 -1.46958e-15)">
<stop offset="0" stop-color="#EB5757"/>
<stop offset="0.972376" stop-color="#F2821E"/>
</linearGradient>
<linearGradient id="paint1_linear" x1="0" y1="0" x2="1" y2="0" gradientUnits="userSpaceOnUse" gradientTransform="matrix(3.18408e-15 72 -52 4.40873e-15 52 -4.40873e-15)">
<stop offset="0" stop-color="#EB5757"/>
<stop offset="0.972376" stop-color="#F2821E"/>
</linearGradient>
<linearGradient id="paint2_linear" x1="0" y1="0" x2="1" y2="0" gradientUnits="userSpaceOnUse" gradientTransform="matrix(1.33934e-15 25.9128 -21.8731 1.5867e-15 21.8731 -1.5867e-15)">
<stop offset="0" stop-color="#EB5757"/>
<stop offset="0.972376" stop-color="#F2821E"/>
</linearGradient>
<path id="path0_fill" fill-rule="evenodd" d="M 0 0L 60 0L 60 24L 0 24L 0 0Z"/>
<path id="path1_fill" fill-rule="evenodd" d="M 4 4L 48 4L 48 16L 4 16L 4 4ZM 0 0L 4 0L 48 0L 52 0L 52 4L 52 16L 52 20L 48 20L 4 20L 0 20L 0 16L 0 4L 0 0ZM 4 56L 42 56L 42 68L 4 68L 4 56ZM 0 52L 4 52L 42 52L 46 52L 46 56L 46 68L 46 72L 42 72L 4 72L 0 72L 0 68L 0 56L 0 52Z"/>
<path id="path2_fill" fill-rule="evenodd" d="M 19.265 7.99736C 18.9 7.99736 18.5524 8.07378 18.2368 8.21111C 17.853 7.23812 16.9117 6.54834 15.8134 6.54834C 15.4054 6.54834 15.019 6.64361 14.6748 6.81305C 14.2392 5.97049 13.3663 5.39352 12.3619 5.39352C 12.0667 5.39352 11.7832 5.44403 11.5183 5.53591L 11.5183 2.63499C 11.5184 1.18213 10.3484 0 8.91017 0C 7.47209 0 6.30217 1.18213 6.30217 2.63499L 6.30217 13.0736L 4.42374 10.9174C 4.41061 10.9026 4.39722 10.8882 4.38331 10.8743C 3.89009 10.3791 3.23365 10.1045 2.53496 10.1011C 2.53044 10.1011 2.52617 10.1011 2.52165 10.1011C 1.82461 10.1011 1.172 10.3711 0.68287 10.8622C -0.179565 11.7278 -0.227304 13.0127 0.552261 14.3878C 1.56139 16.1668 2.65835 17.8442 3.62626 19.3244C 4.33357 20.4061 5.00174 21.4278 5.49017 22.2725C 5.91374 23.0056 7.03809 25.383 7.04957 25.407C 7.19548 25.7159 7.50583 25.9128 7.84635 25.9128L 19.0003 25.9128C 19.3835 25.9128 19.7227 25.6648 19.8402 25.299C 20.0482 24.65 21.8731 18.8952 21.8731 16.6727L 21.8731 10.6326C 21.873 9.1794 20.7031 7.99736 19.265 7.99736ZM 18.4215 10.6326C 18.4215 10.1555 18.8 9.76741 19.265 9.76741C 19.7303 9.76741 20.1088 10.1555 20.1088 10.6326L 20.1088 16.6727C 20.1088 18.1496 18.9774 22.1202 18.3532 24.1427L 8.40258 24.1427C 8.03684 23.3791 7.35136 21.9646 7.01614 21.3845C 6.50336 20.4974 5.82223 19.4559 5.10119 18.3532C 4.14762 16.8952 3.06701 15.2426 2.08545 13.5125C 1.82927 13.0604 1.59449 12.451 1.93066 12.1137C 2.08745 11.956 2.29858 11.8737 2.5264 11.8712C 2.74875 11.8724 2.95788 11.9565 3.11814 12.1086L 6.52023 16.0134C 6.76197 16.2911 7.15049 16.3891 7.49432 16.2596C 7.83849 16.1299 8.0664 15.7997 8.0664 15.431L 8.0664 2.63503C 8.0664 2.15805 8.44493 1.77014 8.91023 1.77014C 9.37562 1.77014 9.75423 2.15805 9.75423 2.63503L 9.75423 10.8984C 9.75423 11.3872 10.1493 11.7835 10.6363 11.7835C 11.1234 11.7835 11.5184 11.3872 11.5184 10.8984L 11.5184 8.02829C 11.5184 7.55156 11.8968 7.16375 12.362 7.16375C 12.8273 7.16375 13.2057 7.55156 13.2057 8.02829L 13.2057 12.0528C 13.2057 12.5418 13.6007 12.9379 14.0877 12.9379C 14.5748 12.9379 14.9699 12.5419 14.9699 12.0528L 14.9699 9.18337C 14.9699 8.70638 15.3483 8.31839 15.8134 8.31839C 16.2788 8.31839 16.6574 8.70638 16.6574 9.18337L 16.6574 13.2081C 16.6574 13.6968 17.0524 14.0933 17.5395 14.0933C 18.0268 14.0933 18.4217 13.6968 18.4217 13.2081L 18.4217 10.6326L 18.4215 10.6326Z"/>
</defs>
</svg>
