<svg width="48" height="48" viewBox="0 0 48 48" fill="none" xmlns="http://www.w3.org/2000/svg">
<path d="M34.5 0.75H13.5C12.5058 0.751191 11.5527 1.14666 10.8497 1.84966C10.1467 2.55267 9.75119 3.5058 9.75 4.5V43.5C9.75119 44.4942 10.1467 45.4473 10.8497 46.1503C11.5527 46.8533 12.5058 47.2488 13.5 47.25H34.5C35.4942 47.2488 36.4473 46.8533 37.1503 46.1503C37.8533 45.4473 38.2488 44.4942 38.25 43.5V4.5C38.2488 3.5058 37.8533 2.55267 37.1503 1.84966C36.4473 1.14666 35.4942 0.751191 34.5 0.75ZM29.0393 2.25L28.6643 3.75H19.3358L18.9608 2.25H29.0393ZM36.75 43.5C36.75 44.0967 36.5129 44.669 36.091 45.091C35.669 45.5129 35.0967 45.75 34.5 45.75H13.5C12.9033 45.75 12.331 45.5129 11.909 45.091C11.4871 44.669 11.25 44.0967 11.25 43.5V4.5C11.25 3.90326 11.4871 3.33097 11.909 2.90901C12.331 2.48705 12.9033 2.25 13.5 2.25H17.4142L18.0225 4.68225C18.0631 4.84443 18.1568 4.98839 18.2886 5.09126C18.4204 5.19412 18.5828 5.25 18.75 5.25H29.25C29.4172 5.25 29.5796 5.19412 29.7114 5.09126C29.8432 4.98839 29.9369 4.84443 29.9775 4.68225L30.5857 2.25H34.5C35.0967 2.25 35.669 2.48705 36.091 2.90901C36.5129 3.33097 36.75 3.90326 36.75 4.5V43.5Z" fill="white"/>
<path d="M31.5 42.75H25.5C25.3011 42.75 25.1103 42.829 24.9697 42.9697C24.829 43.1103 24.75 43.3011 24.75 43.5C24.75 43.6989 24.829 43.8897 24.9697 44.0303C25.1103 44.171 25.3011 44.25 25.5 44.25H31.5C31.6989 44.25 31.8897 44.171 32.0303 44.0303C32.171 43.8897 32.25 43.6989 32.25 43.5C32.25 43.3011 32.171 43.1103 32.0303 42.9697C31.8897 42.829 31.6989 42.75 31.5 42.75Z" fill="white"/>
<path d="M34.5 42.75H33.75C33.5511 42.75 33.3603 42.829 33.2197 42.9697C33.079 43.1103 33 43.3011 33 43.5C33 43.6989 33.079 43.8897 33.2197 44.0303C33.3603 44.171 33.5511 44.25 33.75 44.25H34.5C34.6989 44.25 34.8897 44.171 35.0303 44.0303C35.171 43.8897 35.25 43.6989 35.25 43.5C35.25 43.3011 35.171 43.1103 35.0303 42.9697C34.8897 42.829 34.6989 42.75 34.5 42.75Z" fill="white"/>
</svg>
