<svg width="48" height="48" viewBox="0 0 48 48" fill="none" xmlns="http://www.w3.org/2000/svg">
<path d="M44.3532 42.5302H3.64619C2.79037 42.5302 2.12061 43.2372 2.12061 44.0558C2.12061 44.8744 2.82758 45.5814 3.64619 45.5814H44.3904C45.2462 45.5814 45.916 44.8744 45.916 44.0558C45.916 43.2372 45.209 42.5302 44.3532 42.5302Z" fill="white"/>
<path d="M2.12071 29.0233L2.0835 36.2791C2.0835 36.6884 2.23233 37.0977 2.53001 37.3953C2.82768 37.693 3.19978 37.8419 3.60908 37.8419L10.8277 37.8046C11.237 37.8046 11.6091 37.6558 11.9068 37.3581L36.837 12.4279C37.4323 11.8326 37.4323 10.8651 36.837 10.2326L29.6928 3.01396C29.0975 2.41861 28.13 2.41861 27.4975 3.01396L22.5114 8.03721L2.56722 27.9442C2.30675 28.2419 2.12071 28.614 2.12071 29.0233ZM28.6137 6.28837L33.637 11.3116L30.8091 14.1395L25.7858 9.11628L28.6137 6.28837ZM5.20908 29.693L23.5905 11.3116L28.6137 16.3349L10.2323 34.6791L5.17187 34.7163L5.20908 29.693Z" fill="white"/>
</svg>
