<svg width="24" height="24" viewBox="0 0 24 24" fill="none" xmlns="http://www.w3.org/2000/svg">
<path fill-rule="evenodd" clip-rule="evenodd" d="M23.4126 20.5763L18.1988 15.3625C18.1711 15.3348 18.1385 15.3154 18.1096 15.2897C19.1355 13.7334 19.7343 11.8706 19.7343 9.86724C19.7343 4.41769 15.3166 0 9.86714 0C4.41769 0 0 4.41769 0 9.86714C0 15.3165 4.41759 19.7343 9.86705 19.7343C11.8705 19.7343 13.7332 19.1355 15.2895 18.1096C15.3153 18.1385 15.3345 18.171 15.3622 18.1987L20.5762 23.4126C21.3595 24.1958 22.6293 24.1958 23.4126 23.4126C24.1958 22.6294 24.1958 21.3596 23.4126 20.5763ZM9.86714 16.3137C6.30672 16.3137 3.42053 13.4275 3.42053 9.86714C3.42053 6.30672 6.30682 3.42053 9.86714 3.42053C13.4274 3.42053 16.3137 6.30682 16.3137 9.86714C16.3137 13.4275 13.4274 16.3137 9.86714 16.3137Z" fill="#BDBDBD"/>
</svg>
