<svg width="48" height="48" viewBox="0 0 48 48" fill="none" xmlns="http://www.w3.org/2000/svg">
<path fill-rule="evenodd" clip-rule="evenodd" d="M24 48C37.2548 48 48 37.2548 48 24C48 10.7452 37.2548 0 24 0C10.7452 0 0 10.7452 0 24C0 37.2548 10.7452 48 24 48Z" fill="#65A2D9"/>
<path fill-rule="evenodd" clip-rule="evenodd" d="M36.8449 13.0619C34.3415 15.234 31.8524 17.1377 29.8179 19.798C24.8135 25.8329 18.698 34.3949 10.3755 33.1186L25.2452 47.9682C37.8504 47.3239 47.8855 36.9532 47.997 24.2142L36.8449 13.0619Z" fill="#3A7CA5"/>
<path fill-rule="evenodd" clip-rule="evenodd" d="M37.3003 15.2316C36.6897 15.5024 36.0562 15.716 35.4058 15.8705C36.1224 15.1898 36.6611 14.3381 36.965 13.3876C37.0518 13.1164 36.7569 12.8816 36.512 13.0269C35.6073 13.5636 34.6328 13.9659 33.6157 14.2233C33.5568 14.2383 33.496 14.2458 33.4348 14.2458C33.2493 14.2458 33.0696 14.1771 32.9275 14.0522C31.8455 13.0984 30.4535 12.5731 29.0083 12.5731C28.3828 12.5731 27.7516 12.6706 27.1318 12.8629C25.2112 13.4585 23.7292 15.043 23.264 16.9976C23.0896 17.7305 23.0425 18.4646 23.1237 19.1786C23.1328 19.2607 23.0943 19.3179 23.0704 19.3447C23.0282 19.3917 22.9687 19.4188 22.9068 19.4188C22.9 19.4188 22.8927 19.4186 22.8858 19.4179C18.6815 19.0272 14.8901 17.0018 12.2106 13.7144C12.0742 13.5467 11.8118 13.5673 11.7029 13.754C11.1783 14.6546 10.901 15.6842 10.901 16.7321C10.901 18.3377 11.5463 19.8511 12.6669 20.9545C12.1957 20.8426 11.7395 20.6667 11.3156 20.4312C11.1105 20.3173 10.8584 20.464 10.8555 20.6984C10.8264 23.0839 12.2231 25.2066 14.3153 26.1624C14.2732 26.1633 14.231 26.1637 14.1888 26.1637C13.8572 26.1637 13.5212 26.132 13.1908 26.0685C12.9599 26.0247 12.7659 26.2436 12.8376 26.4672C13.5169 28.5877 15.3423 30.1505 17.527 30.5051C15.714 31.7222 13.6024 32.3641 11.405 32.3641L10.72 32.3638C10.5086 32.3638 10.33 32.5016 10.2766 32.706C10.2236 32.9071 10.321 33.1197 10.5012 33.2245C12.9773 34.6656 15.8019 35.4271 18.6704 35.4271C21.1814 35.4271 23.5302 34.929 25.6516 33.9461C27.5964 33.0452 29.315 31.7575 30.7597 30.1185C32.1056 28.5917 33.1579 26.8293 33.8876 24.8799C34.5831 23.0221 34.9507 21.0392 34.9507 19.1467V19.0563C34.9507 18.7525 35.0881 18.4665 35.328 18.2716C36.2379 17.5327 37.0305 16.6631 37.6832 15.6867C37.8557 15.4291 37.5838 15.1059 37.3003 15.2316Z" fill="white"/>
<path fill-rule="evenodd" clip-rule="evenodd" d="M37.3003 15.2316C36.6895 15.5024 36.0561 15.716 35.4058 15.8705C36.1224 15.1898 36.6611 14.3381 36.9651 13.3876C37.0519 13.1164 36.757 12.8816 36.5121 13.0269C35.6074 13.5636 34.6329 13.9659 33.6157 14.2233C33.5569 14.2383 33.4961 14.2458 33.4349 14.2458C33.2494 14.2458 33.0696 14.1771 32.9276 14.0522C31.8456 13.0984 30.4536 12.5731 29.0084 12.5731C28.383 12.5731 27.7517 12.6706 27.1319 12.8629C25.7892 13.2792 24.6622 14.1799 23.9458 15.3516V34.6151C24.5291 34.4248 25.0983 34.2023 25.6519 33.9458C27.5967 33.0449 29.3152 31.7572 30.7599 30.1182C32.1059 28.5913 33.1581 26.829 33.8879 24.8796C34.5833 23.0218 34.951 21.0389 34.951 19.1464V19.056C34.951 18.7522 35.0884 18.4662 35.3283 18.2713C36.2382 17.5324 37.0308 16.6628 37.6835 15.6865C37.8557 15.4291 37.5838 15.1059 37.3003 15.2316Z" fill="#D1D1D1"/>
</svg>
