<svg width="48" height="48" viewBox="0 0 48 48" fill="none" xmlns="http://www.w3.org/2000/svg">
<path fill-rule="evenodd" clip-rule="evenodd" d="M24 48C37.2548 48 48 37.2548 48 24C48 10.7452 37.2548 0 24 0C10.7452 0 0 10.7452 0 24C0 37.2548 10.7452 48 24 48Z" fill="#6C27B3"/>
<path fill-rule="evenodd" clip-rule="evenodd" d="M35.1292 12.4614C32.2617 12.8244 29.2718 12.8117 26.2628 12.5252C22.0608 12.202 15.9194 10.2626 13.6567 14.1414C10.0219 20.351 11.8146 28.3009 12.6617 35.3362L25.2933 47.9651C37.5171 47.316 47.3138 37.5207 47.9649 25.2973L35.1292 12.4614Z" fill="#501A96"/>
<path fill-rule="evenodd" clip-rule="evenodd" d="M29.5525 10.2626H18.4473C13.9342 10.2626 10.2626 13.9342 10.2626 18.4473V29.5525C10.2626 34.0654 13.9342 37.7373 18.4474 37.7373H29.5526C34.0655 37.7373 37.7374 34.0656 37.7374 29.5525V18.4473C37.7373 13.9342 34.0656 10.2626 29.5525 10.2626ZM34.9735 29.5525C34.9735 32.5463 32.5465 34.9733 29.5527 34.9733H18.4475C15.4537 34.9733 13.0267 32.5463 13.0267 29.5525V18.4474C13.0267 15.4536 15.4537 13.0265 18.4475 13.0265H29.5527C32.5465 13.0265 34.9735 15.4537 34.9735 18.4474V29.5525Z" fill="white"/>
<path fill-rule="evenodd" clip-rule="evenodd" d="M24 16.8939C20.0818 16.8939 16.8939 20.0818 16.8939 24C16.8939 27.9179 20.0818 31.1058 24 31.1058C27.9182 31.1058 31.1058 27.9182 31.1058 24C31.1058 20.0818 27.9182 16.8939 24 16.8939ZM23.9997 28.3418C21.6017 28.3418 19.6576 26.3981 19.6576 23.9999C19.6576 21.6018 21.6017 19.6578 23.9997 19.6578C26.3977 19.6578 28.3416 21.6017 28.3416 23.9999C28.3416 26.398 26.3977 28.3418 23.9997 28.3418Z" fill="white"/>
<path fill-rule="evenodd" clip-rule="evenodd" d="M32.8222 16.9475C32.8222 17.8878 32.0598 18.6503 31.1194 18.6503C30.1791 18.6503 29.4166 17.8878 29.4166 16.9475C29.4166 16.0071 30.1791 15.2448 31.1194 15.2448C32.06 15.2448 32.8222 16.0069 32.8222 16.9475Z" fill="#D1D1D1"/>
<path fill-rule="evenodd" clip-rule="evenodd" d="M29.5525 10.2626H23.946V13.0265H29.5525C32.5463 13.0265 34.9733 15.4537 34.9733 18.4474V29.5526C34.9733 32.5464 32.5463 34.9734 29.5525 34.9734H23.946V37.7373H29.5525C34.0654 37.7373 37.7372 34.0656 37.7372 29.5525V18.4473C37.7372 13.9342 34.0655 10.2626 29.5525 10.2626Z" fill="#D1D1D1"/>
<path fill-rule="evenodd" clip-rule="evenodd" d="M23.9997 16.8939C23.9816 16.8939 23.964 16.8952 23.9459 16.8952V19.6592C23.9638 19.659 23.9816 19.6579 23.9997 19.6579C26.3978 19.6579 28.3416 21.6018 28.3416 24C28.3416 26.398 26.3979 28.3418 23.9997 28.3418C23.9816 28.3418 23.9638 28.3407 23.9459 28.3405V31.1045C23.964 31.1046 23.9816 31.1058 23.9997 31.1058C27.9179 31.1058 31.1055 27.9181 31.1055 24C31.1055 20.0818 27.9179 16.8939 23.9997 16.8939Z" fill="#D1D1D1"/>
</svg>
