<svg width="48" height="48" viewBox="0 0 48 48" fill="none" xmlns="http://www.w3.org/2000/svg">
<path fill-rule="evenodd" clip-rule="evenodd" d="M24 47.9999C37.2548 47.9999 48 37.2548 48 24C48 10.7451 37.2548 0 24 0C10.7452 0 6.10352e-05 10.7451 6.10352e-05 24C6.10352e-05 37.2548 10.7452 47.9999 24 47.9999Z" fill="#4E598F"/>
<path fill-rule="evenodd" clip-rule="evenodd" d="M47.962 22.6594L36.658 11.3517C36.4706 11.4085 36.0034 11.191 35.798 11.2323C30.9495 12.0404 26.2627 11.2323 21.5758 12.5252C19.3131 13.1717 19.1515 15.9191 18.3435 17.6969C17.2122 20.9292 17.3738 24.4848 15.9192 27.5555C14.9495 29.6565 12.6869 30.9494 11.8787 33.3737C11.6092 34.3848 11.6252 35.6592 11.3204 36.6258L22.6622 47.9623C23.1052 47.9866 23.551 48 23.9999 48C37.2547 48 47.9999 37.2548 47.9999 24.0001C48 23.5501 47.9866 23.1032 47.962 22.6594Z" fill="#364270"/>
<path fill-rule="evenodd" clip-rule="evenodd" d="M34.0352 10.2625H13.9648C11.9202 10.2625 10.2626 11.9199 10.2626 13.9646V34.0351C10.2626 36.0798 11.9201 37.7372 13.9648 37.7372H23.8633L23.8805 27.9196H21.3295C20.998 27.9196 20.729 27.6514 20.7278 27.3199L20.7154 24.155C20.7141 23.822 20.9841 23.5509 21.3172 23.5509H23.8637V20.493C23.8637 16.9444 26.031 15.0121 29.1965 15.0121H31.7943C32.1265 15.0121 32.3962 15.2815 32.3962 15.614V18.2824C32.3962 18.6148 32.1268 18.8842 31.7947 18.8842L30.2004 18.8852C28.4789 18.8852 28.1453 19.7032 28.1453 20.9039V23.5513H31.9282C32.289 23.5513 32.5685 23.8661 32.5259 24.2238L32.1508 27.3887C32.1151 27.6917 31.8581 27.9198 31.5531 27.9198H28.1624L28.1452 37.7378H34.0352C36.0797 37.7378 37.7373 36.0801 37.7373 34.0355V13.9646C37.7374 11.92 36.0798 10.2625 34.0352 10.2625Z" fill="white"/>
<path fill-rule="evenodd" clip-rule="evenodd" d="M23.9574 37.7371L24.0393 27.9194H23.8389V37.7371H23.9574Z" fill="white"/>
<path fill-rule="evenodd" clip-rule="evenodd" d="M34.0357 10.2625H23.8389V23.5506H23.8641V20.4928C23.8641 16.9442 26.0315 15.0119 29.197 15.0119H31.7948C32.127 15.0119 32.3967 15.2813 32.3967 15.6138V18.2822C32.3967 18.6146 32.1273 18.8841 31.7952 18.8841L30.2009 18.885C28.4794 18.885 28.1458 19.703 28.1458 20.9037V23.551H31.9287C32.2894 23.551 32.569 23.8658 32.5263 24.2235L32.1513 27.3884C32.1155 27.6914 31.8586 27.9195 31.5536 27.9195H28.1629L28.1457 37.7375H34.0356C36.0802 37.7375 37.7378 36.0798 37.7378 34.0353V13.9646C37.7379 11.92 36.0803 10.2625 34.0357 10.2625Z" fill="#D1D1D1"/>
</svg>
