<svg width="48" height="48" xmlns="http://www.w3.org/2000/svg" xmlns:xlink="http://www.w3.org/1999/xlink"><use xlink:href="#path0_fill" fill="#FFF"/><use xlink:href="#path1_fill" transform="translate(11.32 11.23)" fill="#F2F2F2"/><use xlink:href="#path2_fill" transform="translate(10.26 10.26)"/><use xlink:href="#path3_fill" transform="translate(23.84 10.26)" fill="#222"/><defs><path id="path0_fill" fill-rule="evenodd" d="M24 48c13.255 0 24-10.745 24-24S37.255 0 24 0 0 10.745 0 24s10.745 24 24 24z"/><path id="path1_fill" fill-rule="evenodd" d="M36.642 11.432L25.338.125c-.188.056-.655-.161-.86-.12-4.849.808-9.536 0-14.223 1.293-2.262.647-2.424 3.394-3.232 5.172-1.131 3.232-.97 6.788-2.424 9.858-.97 2.101-3.232 3.394-4.04 5.819-.27 1.01-.254 2.285-.559 3.252l11.342 11.336c.443.025.889.038 1.338.038 13.254 0 24-10.745 24-24 0-.45-.014-.897-.038-1.34z"/><path id="path2_fill" fill-rule="evenodd" d="M23.773 0H3.703A3.702 3.702 0 0 0 0 3.702v20.07a3.702 3.702 0 0 0 3.702 3.703h9.899l.017-9.818h-2.551a.602.602 0 0 1-.602-.6l-.012-3.164a.602.602 0 0 1 .602-.604H13.6V10.23c0-3.548 2.167-5.48 5.333-5.48h2.598c.332 0 .602.27.602.602V8.02c0 .332-.27.602-.602.602h-1.594c-1.722 0-2.055.819-2.055 2.02v2.647h3.783c.36 0 .64.315.597.672l-.375 3.165a.602.602 0 0 1-.598.531H17.9l-.017 9.818h5.89a3.702 3.702 0 0 0 3.702-3.702V3.703A3.702 3.702 0 0 0 23.773 0z"/><path id="path3_fill" fill-rule="evenodd" d="M10.197 0H0v13.288h.025V10.23c0-3.548 2.168-5.48 5.333-5.48h2.598c.332 0 .602.269.602.601V8.02c0 .332-.27.602-.602.602H6.362c-1.722 0-2.055.819-2.055 2.02v2.647H8.09a.6.6 0 0 1 .597.672l-.375 3.165a.602.602 0 0 1-.597.531H4.324l-.017 9.818h5.89a3.702 3.702 0 0 0 3.702-3.702V3.703A3.702 3.702 0 0 0 10.197 0z"/></defs></svg>