<svg width="49" height="48" xmlns="http://www.w3.org/2000/svg" xmlns:xlink="http://www.w3.org/1999/xlink"><use xlink:href="#path0_fill" transform="translate(.33)" fill="#FFF"/><use xlink:href="#path1_fill" transform="translate(10.71 13.06)" fill="#F2F2F2"/><use xlink:href="#path2_fill" transform="translate(10.6 12.57)"/><use xlink:href="#path3_fill" transform="translate(24.28 12.57)" fill="#222"/><defs><path id="path0_fill" fill-rule="evenodd" d="M24 48c13.255 0 24-10.745 24-24S37.255 0 24 0 0 10.745 0 24s10.745 24 24 24z"/><path id="path1_fill" fill-rule="evenodd" d="M26.47 0c-2.504 2.172-4.993 4.076-7.028 6.736C14.438 12.771 8.322 21.333 0 20.056l14.87 14.85c12.605-.644 22.64-11.015 22.751-23.754L26.47 0z"/><path id="path2_fill" fill-rule="evenodd" d="M27.038 2.658c-.61.271-1.244.485-1.894.64A5.905 5.905 0 0 0 26.703.813a.31.31 0 0 0-.453-.36 10.93 10.93 0 0 1-2.897 1.196.768.768 0 0 1-.688-.171A5.922 5.922 0 0 0 18.746 0a6.33 6.33 0 0 0-1.876.29 5.739 5.739 0 0 0-3.868 4.134 6.319 6.319 0 0 0-.14 2.181.22.22 0 0 1-.238.24C8.419 6.454 4.628 4.429 1.948 1.14a.31.31 0 0 0-.507.04c-.525.9-.802 1.93-.802 2.978 0 1.606.645 3.119 1.766 4.222a5.31 5.31 0 0 1-1.352-.523.31.31 0 0 0-.46.267 5.931 5.931 0 0 0 3.46 5.464 5.341 5.341 0 0 1-1.124-.094.31.31 0 0 0-.354.4 5.936 5.936 0 0 0 4.69 4.037 10.93 10.93 0 0 1-6.122 1.859H.458a.453.453 0 0 0-.444.342.47.47 0 0 0 .225.518 16.256 16.256 0 0 0 8.17 2.203c2.51 0 4.859-.498 6.98-1.481a15.415 15.415 0 0 0 5.108-3.828 16.777 16.777 0 0 0 3.128-5.238c.696-1.858 1.064-3.84 1.064-5.733v-.09c0-.305.137-.59.377-.785a11.712 11.712 0 0 0 2.355-2.585c.172-.258-.1-.581-.383-.456z"/><path id="path3_fill" fill-rule="evenodd" d="M13.354 2.658c-.61.271-1.244.485-1.894.64A5.905 5.905 0 0 0 13.02.814a.31.31 0 0 0-.454-.361c-.904.536-1.879.939-2.896 1.196a.768.768 0 0 1-.688-.171A5.923 5.923 0 0 0 5.062 0a6.33 6.33 0 0 0-1.876.29A5.739 5.739 0 0 0 0 2.778v19.264a15.416 15.416 0 0 0 6.814-4.497 16.78 16.78 0 0 0 3.128-5.239c.695-1.857 1.063-3.84 1.063-5.733v-.09c0-.304.138-.59.377-.785a11.712 11.712 0 0 0 2.356-2.585c.172-.257-.1-.58-.383-.455z"/></defs></svg>