<svg version="1.1" xmlns="http://www.w3.org/2000/svg" x="0px"
     y="0px"
     width="394.893px" height="394.893px" viewBox="0 0 394.893 394.893"
     style="enable-background:new 0 0 394.893 394.893;"
     xml:space="preserve">
	<path d="M344.426,191.963c-6.904,0-12.5,5.597-12.5,12.5V350.91H25V43.982h246.57c6.904,0,12.5-5.597,12.5-12.5
		c0-6.903-5.596-12.5-12.5-12.5H12.5c-6.903,0-12.5,5.597-12.5,12.5V363.41c0,6.903,5.597,12.5,12.5,12.5h331.926
		c6.902,0,12.5-5.597,12.5-12.5V204.463C356.926,197.56,351.33,191.963,344.426,191.963z" fill="#FFFFFF"/>
	<path d="M391.23,27.204c-4.881-4.881-12.795-4.881-17.678,0L169.957,230.801l-50.584-50.584c-4.882-4.881-12.796-4.881-17.678,0
		c-4.881,4.882-4.881,12.796,0,17.678l59.423,59.423c2.441,2.44,5.64,3.661,8.839,3.661c3.199,0,6.398-1.221,8.839-3.661
		L391.23,44.882C396.113,40,396.113,32.086,391.23,27.204z" fill="#FFFFFF"/>
</svg>
